<svg id="레이어_1" data-name="레이어 1" xmlns="http://www.w3.org/2000/svg" viewBox="0 0 71.55 62.82"><defs><style>.cls-1{fill:#00a0e9;}.cls-2{fill:#004199;}.cls-3{fill:#fac040;}.cls-4{fill:#009f4c;}.cls-5{fill:#e6001f;}</style></defs><path class="cls-1" d="M230.92,429.24a68.47,68.47,0,0,0-8.12.13s-27.65,2.21-7.48,11.71c0,0,9.36,4.31,26.93,2.94l-19.64,7.45s-30.2-10.25-20.5-18.29c0,0,7.44-6.21,28.8-5.41Z" transform="translate(-183.07 -388.65)"/><path class="cls-2" d="M231,429.23c8.22.35,12.77,2.09,12.77,2.09,12.57,5.12-13.84,9.21-13.84,9.21,18.31-.81,23.52-4.58,23.52-4.58,6.5-4.89-16.75-7.82-16.75-7.82-2-.18-3.91-.31-5.71-.37Z" transform="translate(-183.07 -388.65)"/><path class="cls-3" d="M184,438.71c-.82.69-1.27.94-.53,1.87.27.32.66.19.8.45s.22.29.5.31c1.12.06,1.11.61,2.27.24.42-.05.84-.32.33,0,.46.38.72,0,1-.21a.91.91,0,0,1,1.2-.13c.52.15.5-.86.73-1.13s.5-2.29.8-2.15c.81-.09.95,1.11,1.16.25.07-.31,0-.22.24-1s.17.31.21-.58A5.47,5.47,0,0,1,193,435c.17-.5.14-.35.52-1.62.17-.54.05-.53.26-1.25.14-.47.32-1.21.46-1.72s.56-.93.69-1.42.37-1,.48-1.44.38-1,.46-1.43c.18-.83-.07-.68.18-1.7.11-.48-.05-.92.1-1.55s.4-1.25.52-1.84.35-1,.46-1.62.06-1.12.17-1.68.14-1.15.23-1.71.18-1.07.25-1.62,0-1.15.07-1.69.5-1.12.53-1.65a4.41,4.41,0,0,1,.48-1.78c.21-.55,0-.7.51.69.32.83,1.06,2.27,1,1.88,0-.16-.48-1.59.3-.32a20.5,20.5,0,0,1,.8,2.22s-.09-.69-.1-.72c-.07-.5.1-.38-.14-1.08-.14-.38-.18-.73.62.75.2.39.46,1.22.76,1.84-.11-1-1.14-3.85-.15-2,.24.45-.19-.41.48,1.39.33.87.1-1.24,0-2s.39,2.53.11.42a16,16,0,0,0-.23-1.94c-.14-.76,0-1.6-.17-1.91a6.91,6.91,0,0,1-.52-1.24c-.12-.4-.24-1-.42-1.45a12.51,12.51,0,0,0-.54-1.19,2.81,2.81,0,0,0-.88-1.33c-.63-.58-.8-.6-1.35-.53a2.33,2.33,0,0,1-1.14,0,3.06,3.06,0,0,0-2.2,1c-.49.41-.1.81-.46,1.86-.18.49-.65,0-.79,1.56a14.55,14.55,0,0,1-.53,1.72c-.18.8.11.6-.12,1.62-.1.45-.48.93-.62,1.54s0,1.17-.18,1.76-.3,1-.44,1.54-.28,1-.41,1.59,0,1-.13,1.54-.71,1-.84,1.57-.21,1.07-.35,1.59,0,.95-.19,1.49-.1,1.29-.24,1.81-.23,1.1-.39,1.6-.24,1.1-.4,1.62-.31,1.23-.48,1.72-.41.91-.59,1.38-1.06.77-1.26,1.22a9.87,9.87,0,0,1-.69,1.32l-.88,1.65c-.3.53-.54,1.15-.86,1.66C184.3,437.78,184.22,438.65,184,438.71Z" transform="translate(-183.07 -388.65)"/><path class="cls-4" d="M200.87,415.32c.31-.53-.41.33-.83.95a4.34,4.34,0,0,1-.39.69c-.35.54-.34.36-.42,1.06a4,4,0,0,1-.45,1.24c-.25.85-.39.92,0,1.64s.5.51,1,1.05a12,12,0,0,0,1.23,1.24,6.3,6.3,0,0,1,1.19,1c.45.56.5.4,1.15.86a5.68,5.68,0,0,0,1.38.55,2.48,2.48,0,0,0,1.4,0c.92-.17.85,0,1.81-.56a6.75,6.75,0,0,0,1.41-1.28,8.63,8.63,0,0,0,.89-1.67,5.59,5.59,0,0,0,.53-1.62c.09-.47.19-1,.28-1.65s-.1-1.12,0-1.73.16-1.06.19-1.64.09-1.61.09-2.15c-.32.81-.07,1.34-.22,2.29-.08.57-.1,1.21-.19,1.75-.18,1-.5,1.81-.6,1.62a7.48,7.48,0,0,1-.09-1.76c0-1.07.14-2.19-.16.37-.13.84.2-.75.23-1.66,0-.55,0-1.17,0-1.67-.35.62-.07.71-.19,1.43a9.14,9.14,0,0,1-.42,1.28c0-.8.2-1,0-1.59-.07-.88-.27-.2-.34-.1s-.27-.39-.29-1.7c0-.43,0-1,0-1.63,0-.46-.06-1-.06-1.59-.23,1.13-.14,2-.27,2.28-.29.66-.57,1.11-.44-.59.06-.93,0-.92,0-1.87,0-.69.18-1.34.15-1.73a3.29,3.29,0,0,0-.38,1.51c-.07.47,0,1-.11,1.6s-.11,1-.19,1.57-.26,1-.34,1.52-.19,1.11-.29,1.57a5.43,5.43,0,0,1-.49,1.41c-.27.8-.18,1.14-.81,1.47-.38.2-.84-.06-1.43-.63s-.81-.39-1.24-1.18a2,2,0,0,1-.18-1.53c-.33.75-.64,1.72-.62.36a8,8,0,0,1,.06-1.45c-.06.48-.44.79-.83,1.34s-.78.95-.53.05C201.17,415.6,200.21,416.43,200.87,415.32Z" transform="translate(-183.07 -388.65)"/><path class="cls-5" d="M212,389.05a1.91,1.91,0,0,0-1.38,1.49,3.79,3.79,0,0,1-.24.73,2.8,2.8,0,0,0-.23,1v0a1.52,1.52,0,0,0,.25.65,2.05,2.05,0,0,1,.28.82v.09a3.44,3.44,0,0,0,0,.46c0,.14,0,.28,0,.42s0,.27,0,.39a2.94,2.94,0,0,1,0,.44,6.7,6.7,0,0,1-.19.81,4.45,4.45,0,0,0-.18.69,7,7,0,0,1-.26,1.07,1.33,1.33,0,0,0-.08.47,4.14,4.14,0,0,0,.05.59v0a2.22,2.22,0,0,1-.27.75,4.6,4.6,0,0,0-.38,1l-.09.49-.29,1.4c-.09.39-.19.79-.29,1.18l-.2.83a3,3,0,0,0-.06.54,1.9,1.9,0,0,0,.12.66,1.52,1.52,0,0,1,.09.49,1.47,1.47,0,0,1-.09.5v0a.63.63,0,0,0-.05.21c0,.13.08.26.28.58a.53.53,0,0,1,.09.21.06.06,0,0,1,0,0,.39.39,0,0,0,0,.17,3.71,3.71,0,0,0,.58,1.37,2.77,2.77,0,0,0,1.46,1.14c.45.11.92-.53,1.26-1a3.52,3.52,0,0,1,.25-.33h0a8.88,8.88,0,0,1-.23,1.37.34.34,0,0,0,0,.1.1.1,0,0,0,0,.09l.05,0,0,0a7.87,7.87,0,0,0,1-2.42,4.29,4.29,0,0,1,.16-.74,2.13,2.13,0,0,0,0-1.25,1.9,1.9,0,0,1,.06-1.05,2.9,2.9,0,0,0,.1-.79c0-.27,0-.63,0-1,0-.88,0-1.18-.19-1.22s-.25.11-.43.49a1.08,1.08,0,0,1-.16.3,3.62,3.62,0,0,1-.1-.47l-.1-.57a1.45,1.45,0,0,1,0-.3,6.17,6.17,0,0,1,.22-1.31,2.84,2.84,0,0,0,.07-.33c0-.07,0-.09-.07-.1s-.14.06-.24.24-.22.39-.28.5c0-.12.06-.32.14-.68.16-.6.34-.8.45-.79s.27.28.28.61a5.29,5.29,0,0,1-.17,1.18c-.06.28-.08.34,0,.38s.13-.05.24-.26a3.48,3.48,0,0,0,.37-1.44l0-.27.08-.6a4.63,4.63,0,0,1,.13-.84l0,0c.22.15.27.41.37.86l.16.73h0a.43.43,0,0,0,.24.17c.22.1.52.24.61,1.08a2,2,0,0,0,.34.7,1.71,1.71,0,0,1,.29.61c0,.05,0,.1-.12.14s-.21.22-.21.49a6.17,6.17,0,0,0,.37,1.64c0,.25.18,1.34.27,1.77l.19.81.2.89c.06.31.1.61.14.92l.12.86a2.38,2.38,0,0,0,.41.93,1.24,1.24,0,0,1,.24.47c.06.34.11.73.15,1.1l.12.84.17.73a10.24,10.24,0,0,1,.22,1.07,4.13,4.13,0,0,1,.07.72.79.79,0,0,1-.06.38A.53.53,0,0,1,218,416a6.47,6.47,0,0,1-.11-.71c0-.37-.18-.75-.26-1.37l-.18.05a1,1,0,0,1,0,.17,4.7,4.7,0,0,1-.05.5c0,.22.06.39-.06.61v0c-.06-.22-.11-.38-.17-.41l-.05,0,0,0c-.05,0-.07.05,0,.55a3.88,3.88,0,0,1,0,1.2,7.65,7.65,0,0,0-.1,1,2.85,2.85,0,0,0,.47,1.91,1,1,0,0,0,.91.38,1,1,0,0,1,.75.21c.25.76.7.91,1.68,1a1.39,1.39,0,0,0,1-.3l.26-.14.29-.13c.43-.17.44-.18.73-.67l0,0,.25-.35c.39-.52.42-.56.17-1l-.17-.32a1,1,0,0,1,0-.83,3.17,3.17,0,0,0,.13-1,3.5,3.5,0,0,0-.16-.53,9,9,0,0,1-.32-1.13,5.28,5.28,0,0,0-.25-.77,5.41,5.41,0,0,1-.31-.91,6.28,6.28,0,0,0-.23-.82c-.08-.29-.18-.58-.24-.88a3.33,3.33,0,0,1,0-.84,3.61,3.61,0,0,0,0-.93,6.12,6.12,0,0,1-.1-.86,6.54,6.54,0,0,0-.09-.89c-.07-.31-.16-.59-.24-.87a7.49,7.49,0,0,1-.23-.81,10.2,10.2,0,0,0-.32-1.12,3.81,3.81,0,0,1-.18-.58l-.19-1-.15-.8c-.15-.68-.2-.87-.28-1.13l-.18-.63-.22-.59c-.12-.3-.26-.65-.38-1.05l-.23-.89-.2-.82a5.9,5.9,0,0,1-.18-1.05,5.23,5.23,0,0,0-.15-.91,2.11,2.11,0,0,0-.44-1,2.38,2.38,0,0,1-.4-.75,5.51,5.51,0,0,0-.67-1.29,3.59,3.59,0,0,1-.35-.64c-.13-.29-.09-.56-.29-.76a2.76,2.76,0,0,1-.43-.67,1,1,0,0,0-.58-.49c-.12,0-.25,0-.41.21a.51.51,0,0,1-.47.18c-.24-.06-.46-.34-.62-.79s-.37-.72-.64-.81S212.57,388.69,212,389.05Z" transform="translate(-183.07 -388.65)"/><path class="cls-1" d="M223.55,411.54c-.42,1.3-.61,1.41,0,2.63.49.76.32.76.61,1.69.28,1.19.55,1.52,1.86.24.21-.49-1,.21-.47-.5s.58-1.77,1.19-.54c.58.85.23,1.29.76,3.06.15.53.35,1.18.53,2.05.14.61.23,1.3.37,2.1s.52,1.29.63,2.06.26,1.33.36,2.08,0,1.35.08,2.07a9.74,9.74,0,0,0,.68,2.11,11.32,11.32,0,0,0,.6,2.2,1.75,1.75,0,0,0,1.2,1c-.35-.82-.43-.39-.68-1.29-.15-.53.24-.79.61.31.36,1.25.19,1.53,1.39,1.86.42.15.66,0,1.1.17.63.21.53,0,1.09.2s.67.37,1.32-.37c.79-.91,1-.8-.08-1.92-.9-.9-.58-.67-1.1-2.48-.27-.89-.41-.59-.76-1.69-.16-.51-.22-1.19-.43-1.86s-.27-1.21-.47-1.84-.62-1.11-.8-1.74-.45-1.17-.62-1.77c-.22-.78-.09-1.27-.24-1.84s-.36-1.28-.5-1.85-.4-1.34-.51-1.89a12.57,12.57,0,0,1-.3-1.7,10.1,10.1,0,0,0-.18-1.89c-.12-.55-.35-1.3-.54-1.91a8.43,8.43,0,0,0-.67-1.49c-.27-.55-.39-1.26-.75-1.59a3.59,3.59,0,0,0-1.45-.94c-.51-.26-1.24-.46-1.61.05a2.91,2.91,0,0,0-.52,1.18,7.59,7.59,0,0,1-1.41,2.44C223.45,410.54,223.6,410.88,223.55,411.54Z" transform="translate(-183.07 -388.65)"/></svg>