<svg id="Layer_1" data-name="Layer 1" xmlns="http://www.w3.org/2000/svg" xmlns:xlink="http://www.w3.org/1999/xlink" viewBox="0 0 313.68 39.25"><defs><style>.cls-1{fill:url(#radial-gradient);}.cls-2{fill:url(#radial-gradient-2);}.cls-3{opacity:0.45;}.cls-4{fill:#fff;}.cls-5{fill:url(#radial-gradient-3);}.cls-6{fill:#11477d;}</style><radialGradient id="radial-gradient" cx="168.73" cy="414.76" r="17.02" gradientUnits="userSpaceOnUse"><stop offset="0.01" stop-color="#cae6ed"/><stop offset="0.08" stop-color="#c5e4ec"/><stop offset="0.18" stop-color="#b5dee7"/><stop offset="0.29" stop-color="#9cd3e1"/><stop offset="0.4" stop-color="#78c5d7"/><stop offset="0.49" stop-color="#57b8ce"/><stop offset="0.57" stop-color="#50aec7"/><stop offset="0.71" stop-color="#3f93b4"/><stop offset="0.88" stop-color="#226896"/><stop offset="1" stop-color="#0d4780"/></radialGradient><radialGradient id="radial-gradient-2" cx="196.08" cy="429.58" r="7.2" gradientTransform="translate(-58.15) scale(1.26 1)" gradientUnits="userSpaceOnUse"><stop offset="0" stop-color="#fff"/><stop offset="0.13" stop-color="#fcfefe"/><stop offset="0.25" stop-color="#f1f9fb"/><stop offset="0.35" stop-color="#dff2f6"/><stop offset="0.46" stop-color="#c7e7ef"/><stop offset="0.56" stop-color="#a6dae5"/><stop offset="0.65" stop-color="#80c9da"/><stop offset="0.74" stop-color="#57b8ce"/><stop offset="0.86" stop-color="#3697b8"/><stop offset="1" stop-color="#0c6d9c"/></radialGradient><radialGradient id="radial-gradient-3" cx="160.06" cy="363.58" r="4.66" gradientTransform="translate(0 97.87) scale(1 0.88)" xlink:href="#radial-gradient-2"/></defs><path class="cls-1" d="M168.31,401.92c-.75,0-1.5.1-2.23.2a25.66,25.66,0,0,0-9,3,16.55,16.55,0,0,0-8.38,11.36,19.73,19.73,0,0,0-.31,2.55,8.45,8.45,0,0,0,1.19,4.94,7.85,7.85,0,0,0,6.69,3.6h.14a7.41,7.41,0,0,0,7.28-8.28c0-.26-.08-.51-.13-.76s-.13-.64-.18-.93c.87-2,5.12-10.17,15.74-7,0,0-9.76-4.11-15.76,3.75a5.09,5.09,0,0,1,1.58-2.46,10.93,10.93,0,0,1,7.15-2.85,16.19,16.19,0,0,1,10.83,3.47c3.19,2.67,4.93,6.72,5.82,10.69.11.48.2,1,.29,1.45a9.2,9.2,0,0,1,.05-1.48,30.15,30.15,0,0,0-.25-3.79,22.23,22.23,0,0,0-3.91-10.32C181.14,404,174.56,401.68,168.31,401.92Z" transform="translate(-140.44 -401.91)"/><path class="cls-2" d="M193.43,434a4.72,4.72,0,0,1-4.66,4.44A4.55,4.55,0,0,1,184.1,434a7,7,0,0,1,3.11-5.51,5.86,5.86,0,0,0,1.84-3.31,6.72,6.72,0,0,0,1.63,3.31S193.64,431.83,193.43,434Z" transform="translate(-140.44 -401.91)"/><g class="cls-3"><path class="cls-4" d="M190.6,437.61c0,.24-.75.43-1.69.43s-1.7-.19-1.7-.43c0-.42,1.32-.11,1.63-.1S190.6,437.15,190.6,437.61Z" transform="translate(-140.44 -401.91)"/><path class="cls-4" d="M187,437.43c0,.11-.26.14-.45.08s-.32-.2-.27-.31.26-.13.46-.07S187,437.33,187,437.43Z" transform="translate(-140.44 -401.91)"/></g><path class="cls-5" d="M162.67,421.69a2.55,2.55,0,0,1-2.4,2.54,2.48,2.48,0,0,1-2.4-2.54,4.19,4.19,0,0,1,1.6-3.15,3.44,3.44,0,0,0,.95-1.9,4.13,4.13,0,0,0,.84,1.9S162.78,420.44,162.67,421.69Z" transform="translate(-140.44 -401.91)"/><g class="cls-3"><path class="cls-4" d="M161.22,423.74c0,.14-.39.25-.87.25s-.88-.11-.88-.25.68-.06.84-.06S161.22,423.48,161.22,423.74Z" transform="translate(-140.44 -401.91)"/><path class="cls-4" d="M159.35,423.64c0,.06-.13.08-.23,0s-.16-.11-.14-.17.14-.08.24-.05S159.38,423.58,159.35,423.64Z" transform="translate(-140.44 -401.91)"/></g><path class="cls-6" d="M154.08,433.81v-1.06H156v2.17c0,1.11-.9,1.53-2,1.53s-2-.42-2-1.53V431c0-1.1.89-1.53,2-1.53s2,.43,2,1.53v.74h-1.34v-.55c0-.36-.29-.56-.67-.56s-.68.2-.68.56v3.57c0,.35.31.56.7.56s.71-.21.71-.56v-.93Z" transform="translate(-140.44 -401.91)"/><path class="cls-6" d="M161.48,434.85A1.27,1.27,0,0,1,160,436.3h-2.57v-6a.67.67,0,0,1,.66-.66H160a1.28,1.28,0,0,1,1.45,1.46Zm-1.31-3.47c0-.4-.14-.61-.57-.61h-.79v4.36h.79c.43,0,.57-.2.57-.59Z" transform="translate(-140.44 -401.91)"/><path class="cls-6" d="M164.4,429.6v6.7H163v-6a.67.67,0,0,1,.66-.66Z" transform="translate(-140.44 -401.91)"/><path class="cls-6" d="M166,436.3v-6a.67.67,0,0,1,.66-.66h2.92v1.2H167.3v1.54h2.16v1.11H167.3v2.85Z" transform="translate(-140.44 -401.91)"/><path class="cls-6" d="M181.67,434.64c-.52-2-4.37-3.74-11.24-4.53,4.75.84,6.89,2.37,6.88,4.12a1.39,1.39,0,0,1-.06.4c-.71,2.44-7.69,4.34-16.18,4.31s-15.47-2-16.16-4.41a1.39,1.39,0,0,1-.06-.4c0-1.75,2.15-3.26,6.91-4.08-6.88.75-10.74,2.45-11.26,4.47a1,1,0,0,0-.06.35c0,2.93,9.23,5.33,20.62,5.37s20.65-2.31,20.66-5.24A1.49,1.49,0,0,0,181.67,434.64Z" transform="translate(-140.44 -401.91)"/><path class="cls-6" d="M174.06,431.83c3.55,3.68-6.19,5.53-6.88,5.63-2.34.32-4.25.55-6.27.68a66.33,66.33,0,0,1-7.06,0,53.42,53.42,0,0,0,7.06.39,49.81,49.81,0,0,0,9.22-.89C176.56,436.33,178.1,434,174.06,431.83Z" transform="translate(-140.44 -401.91)"/><path class="cls-6" d="M203.58,414.17v-3h3v-2.4H210v2.4h3v3Zm.24,4.67a4.46,4.46,0,0,1,8.88,0v4.66a4.46,4.46,0,0,1-8.88,0Zm5.81,4.48V419a1.36,1.36,0,0,0-2.72,0v4.31a1.36,1.36,0,0,0,2.72,0Zm4.44,4.53V409h3.17v7.08h1.38V409h3.25v18.83h-3.25v-8.44h-1.38v8.44Z" transform="translate(-140.44 -401.91)"/><path class="cls-6" d="M224.31,415v-1.5c0-2.95,2.42-4.5,5.37-4.5s5.37,1.55,5.37,4.5V415c0,3-2.42,4.47-5.37,4.47S224.31,418,224.31,415Zm4.6,12.93a3.78,3.78,0,0,1-3.95-3.7,3.74,3.74,0,0,1,3.95-3.68H238a3.75,3.75,0,0,1,4,3.68,3.79,3.79,0,0,1-4,3.7Zm2.64-12.7v-2c0-1-.79-1.54-1.83-1.54s-1.83.57-1.83,1.54v2c0,1,.77,1.54,1.83,1.54S231.55,416.22,231.55,415.25Zm5.35,9.88c.73,0,1.24-.27,1.24-.88s-.51-.87-1.24-.87H230c-.65,0-1.15.22-1.15.87s.5.88,1.15.88Zm.79-5.09V409h3.86v1.65h2.07v2.81h-2.07v1.6h2.07v2.81h-2.07V420Z" transform="translate(-140.44 -401.91)"/><path class="cls-6" d="M244.64,415.65a5.45,5.45,0,0,0,4.25-5.41v-1.09h3.88v1.09a5.46,5.46,0,0,0,4.25,5.41V419a9.9,9.9,0,0,1-6.2-3.74,9.82,9.82,0,0,1-6.18,3.74Zm1.16,12.2v-7.77h16.89v7.77h-3.88v-.55Zm3.88-3,9.13-.35v-1.54h-9.13Zm9.07-5.31V409h3.92v10.49Z" transform="translate(-140.44 -401.91)"/><path class="cls-6" d="M265,420.65V418h18.64v2.7Zm3.93.84h10.75a3.23,3.23,0,1,1,0,6.44H268.88a3.22,3.22,0,1,1,0-6.44Zm-3.32-6.9c4.27.05,6.4-.89,6.69-2h-6.46V410h6.52V408.6h3.94V410h6.49v2.62h-6.47c.29,1.12,2.42,2.06,6.69,2v2.59c-4.47,0-7.36-.86-8.7-2.4-1.34,1.54-4.23,2.38-8.7,2.4Zm13.05,10.74a.72.72,0,0,0,.77-.67.71.71,0,0,0-.77-.65h-8.78a.71.71,0,0,0-.77.65.72.72,0,0,0,.77.67Z" transform="translate(-140.44 -401.91)"/><path class="cls-6" d="M292.82,428.05v-5.43h-7.33v-3.25h18.64v3.25h-7.36v5.43Zm-6.62-13.41c4.2,0,6.64-2.69,6.64-4.78v-.61h3.93v.61c0,2.09,2.44,4.75,6.64,4.78v3.23c-4.35,0-7.21-1.75-8.61-3.72-1.43,2-4.21,3.7-8.6,3.72Z" transform="translate(-140.44 -401.91)"/><path class="cls-6" d="M306.24,417.07a5.61,5.61,0,0,0,4.11-5.67v-2.25h3.84v2.42a5.55,5.55,0,0,0,4.11,5.5v3.52a9.14,9.14,0,0,1-6-3.92,9.29,9.29,0,0,1-6,3.92Zm1.16,10.78v-6.42h3.9v3.37h12.79v3.05Zm12.42-5.12V409h3.86v4.74h2.24v3.31h-2.24v5.66Z" transform="translate(-140.44 -401.91)"/><path class="cls-6" d="M341,409h3.89v10.09H341v-3.58h-3.35c-.53,2.22-2.68,3.35-5.24,3.35-3,0-5.37-1.5-5.37-4.45v-.93c0-2.95,2.4-4.48,5.37-4.48,2.54,0,4.69,1.14,5.24,3.36H341Zm0,11.82V419.6h3.89v8.25H341v-.57l-13.09.57V419.6h3.87v1.24Zm-6.72-7.59c0-.95-.82-1.52-1.85-1.52s-1.83.57-1.83,1.52v1.41c0,.95.79,1.52,1.83,1.52s1.85-.57,1.85-1.52ZM341,424.56V423.5h-9.22v1.4Z" transform="translate(-140.44 -401.91)"/><path class="cls-6" d="M353.39,427.5v-3.31h6v-7.6h3.8v7.6H372v3.31Zm13.21-4.18.67-10.74H354.12v-3.23h17.16l-.88,14Z" transform="translate(-140.44 -401.91)"/><path class="cls-6" d="M374.14,416.53a5.13,5.13,0,0,0,4.07-5.19v-2.19H382v2.19c0,2.58,1.4,4.21,4.07,5v3.44a9.43,9.43,0,0,1-6-3.48,9.57,9.57,0,0,1-6,3.58Zm4.9,4h9.43a3.75,3.75,0,0,1,4,3.68,3.79,3.79,0,0,1-4,3.7H379a3.77,3.77,0,0,1-3.94-3.7A3.73,3.73,0,0,1,379,420.57Zm8.34,4.56c.71,0,1.22-.27,1.22-.88s-.51-.87-1.22-.87h-7.24c-.65,0-1.18.22-1.18.87s.53.88,1.18.88Zm-3.07-10.41v-3.09h4V409h3.86v11.1h-3.86v-5.4Z" transform="translate(-140.44 -401.91)"/><path class="cls-6" d="M394.68,417c2.37-.2,4.37-1.56,4.41-4.14v-.41h-4.21v-3.11h12v3.11h-4.21v.41c.05,2.6,2.06,3.94,4.42,4.14v3.22c-2.71-.13-5-1.16-6.2-3.07-1.22,1.91-3.5,2.94-6.18,3.07Zm1.18,10.82v-6.73h4v3.68H413v3.05ZM408.78,423V409h3.93v14Z" transform="translate(-140.44 -401.91)"/><path class="cls-6" d="M415,420.55v-2.74h18.64v2.74Zm.61-7.64v-2.65h6.81V408.6h3.8v1.66H433v2.65h-1.28a1.85,1.85,0,0,1,.46,1.24c0,1.54-1.13,2.76-3.13,2.76h-9.53a2.78,2.78,0,0,1-3.09-2.76,1.9,1.9,0,0,1,.43-1.24Zm3.33,8.7h10.75a3.17,3.17,0,1,1,0,6.32H418.93a3.16,3.16,0,1,1,0-6.32Zm9.72,3.76a.68.68,0,0,0,.73-.65.67.67,0,0,0-.73-.63H419.9a.67.67,0,0,0-.73.63.68.68,0,0,0,.73.65Zm-.59-11.06a.76.76,0,0,0,.81-.73.78.78,0,0,0-.81-.75h-7.59a.78.78,0,0,0-.83.75.76.76,0,0,0,.83.73Z" transform="translate(-140.44 -401.91)"/><path class="cls-6" d="M440.58,425.1h13.54v2.75h-17.2v-6h2.58l.49-2.76h-4.51v-2.79h13.84v2.79h-5.73l-.65,3.7h-2.36Zm-1.28-9.53a3.17,3.17,0,1,1,0-6.34h5.57a3.17,3.17,0,1,1,0,6.34Zm1-3.88a.75.75,0,1,0,0,1.5h3.53a.75.75,0,1,0,0-1.5Zm4.31,10.87V420H450V409h3.86V423.8H450v-1.24Z" transform="translate(-140.44 -401.91)"/><path class="cls-6" d="M211.35,439.57h-.49l-.08-1.33a2.32,2.32,0,0,1-2.39,1.48c-2,0-3.22-1.52-3.22-3.72s1.2-3.73,3.22-3.73a2.72,2.72,0,0,1,2.87,2.38h-.66a2.16,2.16,0,0,0-2.21-1.79c-1.82,0-2.56,1.58-2.56,3.14s.72,3.14,2.56,3.14a2.34,2.34,0,0,0,2.37-2.62h-2.31v-.58h2.9Z" transform="translate(-140.44 -401.91)"/><path class="cls-6" d="M215.59,439.72c-1.45,0-2.36-1.13-2.36-2.73s.91-2.73,2.36-2.73S218,435.39,218,437,217,439.72,215.59,439.72Zm0-4.93c-1.05,0-1.75.9-1.75,2.2s.7,2.2,1.75,2.2,1.75-.9,1.75-2.2S216.64,434.79,215.59,434.79Z" transform="translate(-140.44 -401.91)"/><path class="cls-6" d="M221.63,439.72a1.84,1.84,0,0,1-2.06-1.82h.6a1.36,1.36,0,0,0,1.49,1.29c.81,0,1.36-.33,1.36-1s-.43-.75-1.09-.93l-.79-.21c-.71-.19-1.4-.52-1.4-1.38s.64-1.43,1.83-1.43a1.72,1.72,0,0,1,1.89,1.66h-.61a1.16,1.16,0,0,0-1.3-1.13c-.77,0-1.19.36-1.19.87s.48.73,1,.88l.82.22c.79.21,1.42.49,1.42,1.41C223.63,439.26,222.78,439.72,221.63,439.72Z" transform="translate(-140.44 -401.91)"/><path class="cls-6" d="M225.85,437.16c0,1.15.6,2,1.63,2a1.58,1.58,0,0,0,1.59-1.32h.61a2.13,2.13,0,0,1-2.2,1.85c-1.34,0-2.24-1-2.24-2.73,0-1.48.74-2.73,2.23-2.73s2.23,1.32,2.23,2.9Zm3.24-.53a1.76,1.76,0,0,0-1.62-1.84,1.78,1.78,0,0,0-1.62,1.84Z" transform="translate(-140.44 -401.91)"/><path class="cls-6" d="M233.69,439.72c-1.45,0-2.36-1.13-2.36-2.73s.91-2.73,2.36-2.73,2.36,1.13,2.36,2.73S235.14,439.72,233.69,439.72Zm0-4.93c-1.05,0-1.75.9-1.75,2.2s.7,2.2,1.75,2.2,1.75-.9,1.75-2.2S234.74,434.79,233.69,434.79Z" transform="translate(-140.44 -401.91)"/><path class="cls-6" d="M242,439.57h-.61v-3.23c0-.95-.41-1.55-1.29-1.55a1.61,1.61,0,0,0-1.56,1.77v3H238v-5.16h.61v.89a1.72,1.72,0,0,1,1.62-1c1.35,0,1.84.78,1.84,2Z" transform="translate(-140.44 -401.91)"/><path class="cls-6" d="M248.41,438.85c0,1.42-.64,2.31-2.21,2.31-1.07,0-1.95-.46-2.08-1.56h.62c.11.75.7,1,1.46,1,1.15,0,1.6-.63,1.6-1.87v-.41a1.66,1.66,0,0,1-1.61,1,2.24,2.24,0,0,1-2.26-2.54,2.32,2.32,0,0,1,2.26-2.55,1.66,1.66,0,0,1,1.61,1v-.81h.61Zm-2.22-4.06c-1.06,0-1.65.91-1.65,2s.57,2,1.65,2,1.61-.88,1.61-2S247.31,434.79,246.19,434.79Z" transform="translate(-140.44 -401.91)"/><path class="cls-6" d="M260.67,439.57H258.3v-7.15h2.37c2,0,3.19,1.18,3.19,3.58S262.71,439.57,260.67,439.57Zm-.28-6.56H259v6h1.43c2,0,2.81-.89,2.81-3S262.38,433,260.39,433Z" transform="translate(-140.44 -401.91)"/><path class="cls-6" d="M266.13,437.16c0,1.15.6,2,1.63,2a1.58,1.58,0,0,0,1.59-1.32H270a2.13,2.13,0,0,1-2.2,1.85c-1.34,0-2.24-1-2.24-2.73,0-1.48.74-2.73,2.23-2.73s2.23,1.32,2.23,2.9Zm3.24-.53a1.76,1.76,0,0,0-1.62-1.84,1.78,1.78,0,0,0-1.62,1.84Z" transform="translate(-140.44 -401.91)"/><path class="cls-6" d="M272.17,437.16c0,1.15.59,2,1.63,2a1.58,1.58,0,0,0,1.59-1.32H276a2.13,2.13,0,0,1-2.2,1.85c-1.34,0-2.25-1-2.25-2.73,0-1.48.75-2.73,2.24-2.73s2.23,1.32,2.23,2.9Zm3.24-.53a1.63,1.63,0,1,0-3.24,0Z" transform="translate(-140.44 -401.91)"/><path class="cls-6" d="M280.26,439.72a1.86,1.86,0,0,1-1.76-1.13v2.57h-.61v-6.75h.61v1a1.77,1.77,0,0,1,1.76-1.13c1.36,0,2.25,1,2.25,2.73S281.62,439.72,280.26,439.72Zm0-4.93c-1.12,0-1.76,1-1.76,2.2s.5,2.2,1.76,2.2c1,0,1.64-1,1.64-2.2S281.26,434.79,280.26,434.79Z" transform="translate(-140.44 -401.91)"/><path class="cls-6" d="M290.81,439.72c-1.58,0-2.78-.81-2.75-2.5h.66c0,1.45,1,1.92,2.25,1.92,1,0,1.81-.49,1.81-1.42,0-.65-.48-1.11-1.43-1.35l-1.51-.39c-.83-.21-1.56-.58-1.56-1.69a2.11,2.11,0,0,1,2.38-2,2.31,2.31,0,0,1,2.54,2.23h-.66a1.73,1.73,0,0,0-1.87-1.66c-1.1,0-1.73.59-1.73,1.44,0,.66.46,1,1.05,1.11l1.66.43c1.16.3,1.79.82,1.79,1.89C293.44,439,292.42,439.72,290.81,439.72Z" transform="translate(-140.44 -401.91)"/><path class="cls-6" d="M295.69,437.16c0,1.15.6,2,1.63,2a1.58,1.58,0,0,0,1.59-1.32h.61a2.13,2.13,0,0,1-2.2,1.85c-1.34,0-2.24-1-2.24-2.73,0-1.48.74-2.73,2.23-2.73s2.23,1.32,2.23,2.9Zm3.24-.53a1.76,1.76,0,0,0-1.62-1.84,1.78,1.78,0,0,0-1.62,1.84Z" transform="translate(-140.44 -401.91)"/><path class="cls-6" d="M305.78,439.53a1.7,1.7,0,0,1-.4,0c-.55,0-.72-.35-.72-.9a1.73,1.73,0,0,1-1.84,1.05c-.93,0-1.68-.42-1.68-1.39,0-1.33,1.17-1.53,2.72-1.81.49-.09.75-.27.75-.66,0-.77-.54-1.07-1.31-1.07A1.22,1.22,0,0,0,302,436h-.61a1.78,1.78,0,0,1,2-1.73c1,0,1.84.33,1.84,1.66v2.74c0,.24.12.39.36.39a.59.59,0,0,0,.2,0Zm-1.17-2.83a.84.84,0,0,1-.53.3c-1.52.28-2.32.46-2.32,1.31,0,.59.45.9,1.14.9a1.59,1.59,0,0,0,1.71-1.64Z" transform="translate(-140.44 -401.91)"/><path class="cls-6" d="M323.22,432.42l-1.85,7.15h-.8l-1.7-6.37-1.7,6.37h-.8l-1.84-7.15h.69l1.56,6.26,1.64-6.26h.89l1.65,6.26,1.56-6.26Z" transform="translate(-140.44 -401.91)"/><path class="cls-6" d="M329,439.53a1.7,1.7,0,0,1-.4,0c-.55,0-.72-.35-.72-.9a1.73,1.73,0,0,1-1.84,1.05c-.94,0-1.68-.42-1.68-1.39,0-1.33,1.17-1.53,2.72-1.81.49-.09.75-.27.75-.66,0-.77-.54-1.07-1.31-1.07a1.23,1.23,0,0,0-1.35,1.2h-.6c0-1.18.89-1.73,2-1.73s1.84.33,1.84,1.66v2.74c0,.24.12.39.36.39a.59.59,0,0,0,.2,0Zm-1.17-2.83a.84.84,0,0,1-.53.3c-1.52.28-2.33.46-2.33,1.31,0,.59.46.9,1.15.9a1.59,1.59,0,0,0,1.71-1.64Z" transform="translate(-140.44 -401.91)"/><path class="cls-6" d="M332.72,439.63l-.54,0c-.82,0-1.09-.25-1.09-1.13v-3.58h-.88v-.53h.88v-1.55h.61v1.55h1v.53h-1v3.57c0,.44.13.61.5.61a4.17,4.17,0,0,0,.52,0Z" transform="translate(-140.44 -401.91)"/><path class="cls-6" d="M334.85,437.16c0,1.15.6,2,1.63,2a1.58,1.58,0,0,0,1.59-1.32h.61a2.13,2.13,0,0,1-2.2,1.85c-1.34,0-2.24-1-2.24-2.73,0-1.48.74-2.73,2.23-2.73s2.23,1.32,2.23,2.9Zm3.24-.53a1.76,1.76,0,0,0-1.62-1.84,1.78,1.78,0,0,0-1.62,1.84Z" transform="translate(-140.44 -401.91)"/><path class="cls-6" d="M343,435a1.73,1.73,0,0,0-1.8,1.84v2.75h-.61v-5.16h.61v1.18a1.72,1.72,0,0,1,1.8-1.24Z" transform="translate(-140.44 -401.91)"/><path class="cls-6" d="M349.41,439.57h-.66v-7.15h.66Z" transform="translate(-140.44 -401.91)"/><path class="cls-6" d="M355.89,439.57h-.61v-3.23c0-.95-.41-1.55-1.29-1.55a1.61,1.61,0,0,0-1.56,1.77v3h-.61v-5.16h.61v.89a1.72,1.72,0,0,1,1.62-1c1.35,0,1.84.78,1.84,2Z" transform="translate(-140.44 -401.91)"/><path class="cls-6" d="M362.47,439.57h-.61v-1a1.77,1.77,0,0,1-1.77,1.13c-1.52,0-2.25-1.27-2.25-2.73s.73-2.73,2.25-2.73a2,2,0,0,1,1.77,1.13v-3h.61Zm-2.38-4.78c-1.16,0-1.64,1.13-1.64,2.2s.48,2.2,1.64,2.2c1.31,0,1.77-1.13,1.77-2.2S361.35,434.79,360.09,434.79Z" transform="translate(-140.44 -401.91)"/><path class="cls-6" d="M368.69,439.57h-.61v-.91a1.62,1.62,0,0,1-1.67,1.06c-1.22,0-1.79-.68-1.79-2v-3.36h.61v3.36c0,1,.42,1.42,1.34,1.42s1.51-.88,1.51-1.95v-2.83h.61Z" transform="translate(-140.44 -401.91)"/><path class="cls-6" d="M372.6,439.72a1.85,1.85,0,0,1-2.06-1.82h.61a1.35,1.35,0,0,0,1.48,1.29c.81,0,1.36-.33,1.36-1s-.43-.75-1.09-.93l-.79-.21c-.71-.19-1.39-.52-1.39-1.38s.63-1.43,1.82-1.43a1.72,1.72,0,0,1,1.89,1.66h-.61a1.16,1.16,0,0,0-1.3-1.13c-.77,0-1.19.36-1.19.87s.48.73,1,.88l.82.22c.79.21,1.42.49,1.42,1.41C374.6,439.26,373.75,439.72,372.6,439.72Z" transform="translate(-140.44 -401.91)"/><path class="cls-6" d="M378.54,439.63l-.53,0c-.83,0-1.1-.25-1.1-1.13v-3.58H376v-.53h.88v-1.55h.61v1.55h1v.53h-1v3.57c0,.44.13.61.5.61a3.94,3.94,0,0,0,.52,0Z" transform="translate(-140.44 -401.91)"/><path class="cls-6" d="M382.77,435a1.73,1.73,0,0,0-1.79,1.84v2.75h-.61v-5.16H381v1.18a1.72,1.72,0,0,1,1.79-1.24Z" transform="translate(-140.44 -401.91)"/><path class="cls-6" d="M388.31,434.41l-2.12,5.84a1.15,1.15,0,0,1-1.18.91,1.65,1.65,0,0,1-.47-.05v-.53a2.18,2.18,0,0,0,.42.05c.37,0,.54-.1.75-.66l.19-.51-2-5h.65l1.65,4.33,1.51-4.33Z" transform="translate(-140.44 -401.91)"/><path class="cls-6" d="M402,433H398.3v2.57h3.31v.58H398.3v3.41h-.66v-7.15H402Z" transform="translate(-140.44 -401.91)"/><path class="cls-6" d="M405.7,439.72c-1.45,0-2.36-1.13-2.36-2.73s.91-2.73,2.36-2.73,2.36,1.13,2.36,2.73S407.15,439.72,405.7,439.72Zm0-4.93c-1.05,0-1.75.9-1.75,2.2s.7,2.2,1.75,2.2,1.75-.9,1.75-2.2S406.75,434.79,405.7,434.79Z" transform="translate(-140.44 -401.91)"/><path class="cls-6" d="M414,439.57h-.6v-.91a1.64,1.64,0,0,1-1.68,1.06c-1.22,0-1.79-.68-1.79-2v-3.36h.61v3.36c0,1,.42,1.42,1.34,1.42s1.52-.88,1.52-1.95v-2.83h.6Z" transform="translate(-140.44 -401.91)"/><path class="cls-6" d="M420.24,439.57h-.61v-3.23c0-.95-.41-1.55-1.29-1.55a1.61,1.61,0,0,0-1.56,1.77v3h-.61v-5.16h.61v.89a1.72,1.72,0,0,1,1.62-1c1.35,0,1.84.78,1.84,2Z" transform="translate(-140.44 -401.91)"/><path class="cls-6" d="M426.81,439.57h-.61v-1a1.76,1.76,0,0,1-1.76,1.13c-1.52,0-2.25-1.27-2.25-2.73s.73-2.73,2.25-2.73a2,2,0,0,1,1.76,1.13v-3h.61Zm-2.37-4.78c-1.16,0-1.64,1.13-1.64,2.2s.48,2.2,1.64,2.2,1.76-1.13,1.76-2.2S425.7,434.79,424.44,434.79Z" transform="translate(-140.44 -401.91)"/><path class="cls-6" d="M433.35,439.53a1.7,1.7,0,0,1-.4,0c-.55,0-.72-.35-.72-.9a1.73,1.73,0,0,1-1.84,1.05c-.94,0-1.69-.42-1.69-1.39,0-1.33,1.17-1.53,2.73-1.81.49-.09.75-.27.75-.66,0-.77-.54-1.07-1.31-1.07a1.23,1.23,0,0,0-1.35,1.2h-.61c0-1.18.89-1.73,2-1.73,1,0,1.84.33,1.84,1.66v2.74c0,.24.12.39.36.39a.59.59,0,0,0,.2,0Zm-1.17-2.83a.84.84,0,0,1-.53.3c-1.52.28-2.33.46-2.33,1.31,0,.59.46.9,1.14.9a1.59,1.59,0,0,0,1.72-1.64Z" transform="translate(-140.44 -401.91)"/><path class="cls-6" d="M437,439.63l-.54,0c-.82,0-1.09-.25-1.09-1.13v-3.58h-.88v-.53h.88v-1.55H436v1.55h1v.53h-1v3.57c0,.44.13.61.5.61a4.17,4.17,0,0,0,.52,0Z" transform="translate(-140.44 -401.91)"/><path class="cls-6" d="M439.7,433.44h-.63v-1h.63Zm0,6.13h-.61v-5.16h.61Z" transform="translate(-140.44 -401.91)"/><path class="cls-6" d="M444.18,439.72c-1.45,0-2.36-1.13-2.36-2.73s.91-2.73,2.36-2.73,2.36,1.13,2.36,2.73S445.63,439.72,444.18,439.72Zm0-4.93c-1.05,0-1.75.9-1.75,2.2s.7,2.2,1.75,2.2,1.75-.9,1.75-2.2S445.23,434.79,444.18,434.79Z" transform="translate(-140.44 -401.91)"/><path class="cls-6" d="M452.51,439.57h-.61v-3.23c0-.95-.41-1.55-1.29-1.55a1.61,1.61,0,0,0-1.56,1.77v3h-.61v-5.16h.61v.89a1.72,1.72,0,0,1,1.62-1c1.35,0,1.84.78,1.84,2Z" transform="translate(-140.44 -401.91)"/></svg>